<?xml version="1.0" encoding="UTF-8"?>
<svg width="322px" height="58px" viewBox="0 0 322 58" version="1.1" xmlns="http://www.w3.org/2000/svg" xmlns:xlink="http://www.w3.org/1999/xlink">
    <title>logo</title>
    <defs>
        <linearGradient x1="50.1799257%" y1="129.549718%" x2="50.1799257%" y2="-66.3610169%" id="linearGradient-1">
            <stop stop-color="#814321" offset="0%"></stop>
            <stop stop-color="#A2642A" offset="7.066982%"></stop>
            <stop stop-color="#C08030" offset="14.19%"></stop>
            <stop stop-color="#D49432" offset="20.42%"></stop>
            <stop stop-color="#DD9D33" offset="25.03%"></stop>
            <stop stop-color="#ECAB47" offset="61.24%"></stop>
            <stop stop-color="#E7A645" offset="69.92%"></stop>
            <stop stop-color="#DB9A41" offset="75.53%"></stop>
            <stop stop-color="#CA893B" offset="80.27%"></stop>
            <stop stop-color="#B37334" offset="84.52%"></stop>
            <stop stop-color="#985A2A" offset="88.42%"></stop>
            <stop stop-color="#814321" offset="91.33%"></stop>
        </linearGradient>
        <linearGradient x1="49.9782609%" y1="246.44375%" x2="49.9782609%" y2="-475.883333%" id="linearGradient-2">
            <stop stop-color="#814321" offset="0%"></stop>
            <stop stop-color="#A2642A" offset="7.066982%"></stop>
            <stop stop-color="#C08030" offset="14.19%"></stop>
            <stop stop-color="#D49432" offset="20.42%"></stop>
            <stop stop-color="#DD9D33" offset="25.03%"></stop>
            <stop stop-color="#ECAB47" offset="61.24%"></stop>
            <stop stop-color="#E7A645" offset="69.92%"></stop>
            <stop stop-color="#DB9A41" offset="75.53%"></stop>
            <stop stop-color="#CA893B" offset="80.27%"></stop>
            <stop stop-color="#B37334" offset="84.52%"></stop>
            <stop stop-color="#985A2A" offset="88.42%"></stop>
            <stop stop-color="#814321" offset="91.33%"></stop>
        </linearGradient>
        <linearGradient x1="49.8044068%" y1="130.180588%" x2="49.8044068%" y2="-73.8123529%" id="linearGradient-3">
            <stop stop-color="#814321" offset="0%"></stop>
            <stop stop-color="#A2642A" offset="7.066982%"></stop>
            <stop stop-color="#C08030" offset="14.19%"></stop>
            <stop stop-color="#D49432" offset="20.42%"></stop>
            <stop stop-color="#DD9D33" offset="25.03%"></stop>
            <stop stop-color="#ECAB47" offset="61.24%"></stop>
            <stop stop-color="#E7A645" offset="69.92%"></stop>
            <stop stop-color="#DB9A41" offset="75.53%"></stop>
            <stop stop-color="#CA893B" offset="80.27%"></stop>
            <stop stop-color="#B37334" offset="84.52%"></stop>
            <stop stop-color="#985A2A" offset="88.42%"></stop>
            <stop stop-color="#814321" offset="91.33%"></stop>
        </linearGradient>
        <linearGradient x1="50.1676471%" y1="130.768824%" x2="50.1676471%" y2="-73.2241176%" id="linearGradient-4">
            <stop stop-color="#814321" offset="0%"></stop>
            <stop stop-color="#A2642A" offset="7.066982%"></stop>
            <stop stop-color="#C08030" offset="14.19%"></stop>
            <stop stop-color="#D49432" offset="20.42%"></stop>
            <stop stop-color="#DD9D33" offset="25.03%"></stop>
            <stop stop-color="#ECAB47" offset="61.24%"></stop>
            <stop stop-color="#E7A645" offset="69.92%"></stop>
            <stop stop-color="#DB9A41" offset="75.53%"></stop>
            <stop stop-color="#CA893B" offset="80.27%"></stop>
            <stop stop-color="#B37334" offset="84.52%"></stop>
            <stop stop-color="#985A2A" offset="88.42%"></stop>
            <stop stop-color="#814321" offset="91.33%"></stop>
        </linearGradient>
        <linearGradient x1="49.918059%" y1="130.180588%" x2="49.918059%" y2="-73.8123529%" id="linearGradient-5">
            <stop stop-color="#814321" offset="0%"></stop>
            <stop stop-color="#A2642A" offset="7.066982%"></stop>
            <stop stop-color="#C08030" offset="14.19%"></stop>
            <stop stop-color="#D49432" offset="20.42%"></stop>
            <stop stop-color="#DD9D33" offset="25.03%"></stop>
            <stop stop-color="#ECAB47" offset="61.24%"></stop>
            <stop stop-color="#E7A645" offset="69.92%"></stop>
            <stop stop-color="#DB9A41" offset="75.53%"></stop>
            <stop stop-color="#CA893B" offset="80.27%"></stop>
            <stop stop-color="#B37334" offset="84.52%"></stop>
            <stop stop-color="#985A2A" offset="88.42%"></stop>
            <stop stop-color="#814321" offset="91.33%"></stop>
        </linearGradient>
        <linearGradient x1="49.8085202%" y1="408.728947%" x2="49.8085202%" y2="-503.868421%" id="linearGradient-6">
            <stop stop-color="#814321" offset="0%"></stop>
            <stop stop-color="#A2642A" offset="7.066982%"></stop>
            <stop stop-color="#C08030" offset="14.19%"></stop>
            <stop stop-color="#D49432" offset="20.42%"></stop>
            <stop stop-color="#DD9D33" offset="25.03%"></stop>
            <stop stop-color="#ECAB47" offset="61.24%"></stop>
            <stop stop-color="#E7A645" offset="69.92%"></stop>
            <stop stop-color="#DB9A41" offset="75.53%"></stop>
            <stop stop-color="#CA893B" offset="80.27%"></stop>
            <stop stop-color="#B37334" offset="84.52%"></stop>
            <stop stop-color="#985A2A" offset="88.42%"></stop>
            <stop stop-color="#814321" offset="91.33%"></stop>
        </linearGradient>
        <linearGradient x1="49.8963696%" y1="130.180588%" x2="49.8963696%" y2="-73.8123529%" id="linearGradient-7">
            <stop stop-color="#814321" offset="0%"></stop>
            <stop stop-color="#A2642A" offset="7.066982%"></stop>
            <stop stop-color="#C08030" offset="14.19%"></stop>
            <stop stop-color="#D49432" offset="20.42%"></stop>
            <stop stop-color="#DD9D33" offset="25.03%"></stop>
            <stop stop-color="#ECAB47" offset="61.24%"></stop>
            <stop stop-color="#E7A645" offset="69.92%"></stop>
            <stop stop-color="#DB9A41" offset="75.53%"></stop>
            <stop stop-color="#CA893B" offset="80.27%"></stop>
            <stop stop-color="#B37334" offset="84.52%"></stop>
            <stop stop-color="#985A2A" offset="88.42%"></stop>
            <stop stop-color="#814321" offset="91.33%"></stop>
        </linearGradient>
        <linearGradient x1="49.8603774%" y1="130.950888%" x2="49.8603774%" y2="-74.2491124%" id="linearGradient-8">
            <stop stop-color="#814321" offset="0%"></stop>
            <stop stop-color="#A2642A" offset="7.066982%"></stop>
            <stop stop-color="#C08030" offset="14.19%"></stop>
            <stop stop-color="#D49432" offset="20.42%"></stop>
            <stop stop-color="#DD9D33" offset="25.03%"></stop>
            <stop stop-color="#ECAB47" offset="61.24%"></stop>
            <stop stop-color="#E7A645" offset="69.92%"></stop>
            <stop stop-color="#DB9A41" offset="75.53%"></stop>
            <stop stop-color="#CA893B" offset="80.27%"></stop>
            <stop stop-color="#B37334" offset="84.52%"></stop>
            <stop stop-color="#985A2A" offset="88.42%"></stop>
            <stop stop-color="#814321" offset="91.33%"></stop>
        </linearGradient>
        <linearGradient x1="50.2369247%" y1="204.90463%" x2="50.2369247%" y2="-116.181481%" id="linearGradient-9">
            <stop stop-color="#814321" offset="0%"></stop>
            <stop stop-color="#A2642A" offset="7.066982%"></stop>
            <stop stop-color="#C08030" offset="14.19%"></stop>
            <stop stop-color="#D49432" offset="20.42%"></stop>
            <stop stop-color="#DD9D33" offset="25.03%"></stop>
            <stop stop-color="#ECAB47" offset="61.24%"></stop>
            <stop stop-color="#E7A645" offset="69.92%"></stop>
            <stop stop-color="#DB9A41" offset="75.53%"></stop>
            <stop stop-color="#CA893B" offset="80.27%"></stop>
            <stop stop-color="#B37334" offset="84.52%"></stop>
            <stop stop-color="#985A2A" offset="88.42%"></stop>
            <stop stop-color="#814321" offset="91.33%"></stop>
        </linearGradient>
        <linearGradient x1="50.2673913%" y1="198.510417%" x2="50.2673913%" y2="-523.741667%" id="linearGradient-10">
            <stop stop-color="#814321" offset="0%"></stop>
            <stop stop-color="#A2642A" offset="7.066982%"></stop>
            <stop stop-color="#C08030" offset="14.19%"></stop>
            <stop stop-color="#D49432" offset="20.42%"></stop>
            <stop stop-color="#DD9D33" offset="25.03%"></stop>
            <stop stop-color="#ECAB47" offset="61.24%"></stop>
            <stop stop-color="#E7A645" offset="69.92%"></stop>
            <stop stop-color="#DB9A41" offset="75.53%"></stop>
            <stop stop-color="#CA893B" offset="80.27%"></stop>
            <stop stop-color="#B37334" offset="84.52%"></stop>
            <stop stop-color="#985A2A" offset="88.42%"></stop>
            <stop stop-color="#814321" offset="91.33%"></stop>
        </linearGradient>
        <linearGradient x1="96.7329559%" y1="176.690361%" x2="-36.9805842%" y2="-94.889441%" id="linearGradient-11">
            <stop stop-color="#814321" offset="0%"></stop>
            <stop stop-color="#DD9D33" offset="30.65%"></stop>
            <stop stop-color="#F7D293" offset="61.29%"></stop>
            <stop stop-color="#ECAB47" offset="90.32%"></stop>
        </linearGradient>
        <linearGradient x1="66.3042919%" y1="104.122088%" x2="2.36873599%" y2="-1.03253012%" id="linearGradient-12">
            <stop stop-color="#814321" offset="0%"></stop>
            <stop stop-color="#DD9D33" offset="30.65%"></stop>
            <stop stop-color="#F7D293" offset="61.29%"></stop>
            <stop stop-color="#ECAB47" offset="90.32%"></stop>
        </linearGradient>
        <linearGradient x1="49.959375%" y1="5.76982759%" x2="49.959375%" y2="99.0235632%" id="linearGradient-13">
            <stop stop-color="#FFFFFF" offset="0%"></stop>
            <stop stop-color="#EBEAEA" offset="1.299749%"></stop>
            <stop stop-color="#D1D0D1" offset="3.899447%"></stop>
            <stop stop-color="#BDBDBF" offset="6.874688%"></stop>
            <stop stop-color="#AEAFB2" offset="10.33%"></stop>
            <stop stop-color="#A5A6A9" offset="14.59%"></stop>
            <stop stop-color="#9FA1A4" offset="20.49%"></stop>
            <stop stop-color="#9D9FA2" offset="36.22%"></stop>
        </linearGradient>
        <linearGradient x1="-0.00972222222%" y1="50.0433908%" x2="99.9288194%" y2="50.0433908%" id="linearGradient-14">
            <stop stop-color="#9D9FA2" offset="2.55102%"></stop>
            <stop stop-color="#FFFFFF" offset="99.49%"></stop>
            <stop stop-color="#9D9FA2" offset="100%"></stop>
        </linearGradient>
        <linearGradient x1="66.2373016%" y1="113.231834%" x2="10.4779365%" y2="15.4353369%" id="linearGradient-15">
            <stop stop-color="#814321" offset="0%"></stop>
            <stop stop-color="#DD9D33" offset="30.65%"></stop>
            <stop stop-color="#F7D293" offset="61.29%"></stop>
            <stop stop-color="#ECAB47" offset="90.32%"></stop>
        </linearGradient>
        <linearGradient x1="66.2371429%" y1="113.231834%" x2="10.4777778%" y2="15.4354815%" id="linearGradient-16">
            <stop stop-color="#ECAB47" offset="9.67742%"></stop>
            <stop stop-color="#F7D293" offset="38.71%"></stop>
            <stop stop-color="#DD9D33" offset="69.35%"></stop>
            <stop stop-color="#814321" offset="100%"></stop>
        </linearGradient>
        <filter color-interpolation-filters="auto" id="filter-17">
            <feColorMatrix in="SourceGraphic" type="matrix" values="0 0 0 0 0.913725 0 0 0 0 0.658824 0 0 0 0 0.262745 0 0 0 1.000000 0"></feColorMatrix>
        </filter>
    </defs>
    <g id="Page-1" stroke="none" stroke-width="1" fill="none" fill-rule="evenodd">
        <g id="logo" transform="translate(0.100000, 0.600000)">
            <g id="Group" fill-rule="nonzero">
                <g id="Path" transform="translate(77.000000, 12.700000)" fill="#DD9D33">
                    <path d="M17.3,1.9 C16.4,0.7 15,0 13.5,0 C11.9,0 10.4,0.8 9.5,2 L0.4,14.7 C0.1,15 1.52020044e-23,15.4 1.52020044e-23,15.8 C1.52020044e-23,16.8 0.8,17.7 1.8,17.7 C2.3,17.7 2.8,17.4 3.2,17 L12,4.9 C12.3,4.5 12.9,3.9 13.4,3.9 C14,3.9 14.5,4.5 14.9,4.9 L23.7,17 C24,17.5 24.6,17.7 25.1,17.7 C26.1,17.7 26.9,16.8 26.9,15.8 C26.9,15.3 26.7,14.8 26.4,14.5 L17.3,1.9 Z"></path>
                    <path d="M13.5,11.1 C12.2,11.1 11.2,12.2 11.2,13.5 C11.2,14.8 12.2,15.9 13.5,15.9 C14.8,15.9 15.8,14.8 15.8,13.5 C15.8,12.2 14.8,11.1 13.5,11.1 Z"></path>
                    <path d="M57.6,14 L35,14 C34.2,14 33.6,13.3 33.6,12.6 L33.6,2.7 C33.6,1.7 32.7,0.8 31.8,0.8 C30.8,0.8 30,1.7 30,2.7 L30,12.6 C30,15.5 32.4,17.8 35.2,17.8 L57.7,17.8 C58.7,17.8 59.5,16.9 59.5,15.9 C59.4,14.8 58.6,14 57.6,14 Z"></path>
                    <path d="M70.1,4.5 L91.2,4.5 C92.2,4.5 93,3.6 93,2.6 C93,1.6 92.2,0.7 91.2,0.7 L69.3,0.7 C65,0.7 62.4,5.2 62.4,9.2 C62.4,13 64.8,17.7 68.9,17.7 L91.2,17.7 C92.2,17.7 93,16.8 93,15.8 C93,14.8 92.2,13.9 91.2,13.9 L70.1,13.9 C66.6,13.9 65.9,11 65.9,9.2 C65.9,7.4 66.7,4.5 70.1,4.5 Z"></path>
                    <path d="M123.8,0.8 C122.8,0.8 122,1.7 122,2.7 L122,7.4 L99.8,7.4 L99.8,2.7 C99.8,1.7 99,0.8 98,0.8 C97,0.8 96.2,1.7 96.2,2.7 L96.2,15.9 C96.2,16.9 97,17.8 98,17.8 C99,17.8 99.8,16.9 99.8,15.9 L99.8,11.2 L121.9,11.2 L121.9,15.9 C121.9,16.9 122.7,17.8 123.7,17.8 C124.7,17.8 125.5,16.9 125.5,15.9 L125.5,2.7 C125.6,1.7 124.7,0.8 123.8,0.8 Z"></path>
                    <path d="M155.5,7.4 L136.8,7.4 C135.8,7.4 135,8.3 135,9.3 C135,10.3 135.8,11.2 136.8,11.2 L155.5,11.2 C156.5,11.2 157.3,10.3 157.3,9.3 C157.3,8.3 156.5,7.4 155.5,7.4 Z"></path>
                    <path d="M158.9,2.7 C158.9,1.7 158.1,0.8 157.1,0.8 L135.5,0.8 C131.2,0.8 128.6,5.3 128.6,9.3 C128.6,13.1 131,17.8 135.1,17.8 L157,17.8 C158,17.8 158.8,16.9 158.8,15.9 C158.8,14.9 158,14 157,14 L136.3,14 C132.8,14 132.1,11.1 132.1,9.3 C132.1,7.5 132.9,4.6 136.3,4.6 L157,4.6 C158,4.5 158.9,3.7 158.9,2.7 Z"></path>
                    <path d="M190.4,0.8 C189.2,0.8 188.1,1.4 187.5,2.4 L187.5,2.4 L178.9,12.6 C178.7,12.9 178.2,13.2 177.8,13.2 C177.4,13.2 177,12.8 176.7,12.6 L168,2.4 C167.2,1.5 166.3,0.8 165.1,0.8 C163.1,0.8 161.9,2.5 161.9,4.5 L161.9,15.8 C161.9,16.8 162.7,17.7 163.7,17.7 C164.7,17.7 165.5,16.8 165.5,15.8 L165.5,7.3 C165.5,6.2 165.5,5.7 165.7,5.7 C165.9,5.7 166.2,6.1 166.8,6.7 L175.1,16.4 C175.7,17.2 176.8,17.6 177.8,17.6 C178.9,17.6 179.9,17.2 180.5,16.4 L188.8,6.7 C189.4,6 189.7,5.7 189.9,5.7 C190.1,5.7 190.1,6.2 190.1,7.3 L190.1,15.8 C190.1,16.8 190.9,17.7 191.9,17.7 C192.9,17.7 193.7,16.8 193.7,15.8 L193.7,4.5 C193.6,2.5 192.4,0.8 190.4,0.8 Z"></path>
                    <path d="M225.1,0.8 C224.6,0.8 224.2,1 223.8,1.3 C217.3,7.2 215.7,7.5 211.8,7.5 C207.9,7.5 206.2,7.1 199.7,1.3 C199.3,1 198.9,0.8 198.4,0.8 C197.4,0.8 196.6,1.7 196.6,2.7 C196.6,3.3 196.9,3.8 197.3,4.2 C203.7,10 206.6,11.6 211.7,11.6 C216.5,11.6 219.8,10 226.1,4.2 C226.5,3.9 226.8,3.3 226.8,2.7 C226.9,1.7 226.1,0.8 225.1,0.8 Z"></path>
                    <path d="M211.8,13.4 C210.5,13.4 209.5,14.5 209.5,15.8 C209.5,17.1 210.6,18.2 211.8,18.2 C213.1,18.2 214.1,17.1 214.1,15.8 C214.1,14.5 213.1,13.4 211.8,13.4 Z"></path>
                </g>
                <g transform="translate(75.500000, 36.300000)" fill="#606161">
                    <path d="M11.4,4.5 L11.4,9.2 L4.3,9.2 C1.2,9.2 1.52020044e-23,7.7 1.52020044e-23,4.7 C1.52020044e-23,1.7 1.2,0.2 4.3,0.2 L11.3,0.2 L11.3,1.6 L4.3,1.6 C2,1.6 1.5,2.7 1.5,4.7 C1.5,6.8 2,7.8 4.3,7.8 L10,7.8 L10,4.5 L11.4,4.5 L11.4,4.5 Z" id="Path"></path>
                    <path d="M17.6,0.2 L17.6,5.6 C17.6,7.3 18.3,7.8 20.4,7.8 L26.3,7.8 L26.3,9.2 L20.4,9.2 C17.5,9.2 16.1,8.2 16.1,5.6 L16.1,0.2 L17.6,0.2 Z" id="Path"></path>
                    <path d="M42.3,4.7 C42.3,8.3 40.2,9.3 36,9.3 C31.9,9.3 29.7,8.3 29.7,4.7 C29.7,1.1 31.8,0.1 36,0.1 C40.1,-7.03603842e-15 42.3,1.1 42.3,4.7 Z M40.8,4.7 C40.8,1.9 39.2,1.4 36,1.4 C32.9,1.4 31.2,1.8 31.2,4.7 C31.2,7.5 32.8,8 36,8 C39.1,7.9 40.8,7.5 40.8,4.7 Z" id="Shape"></path>
                    <path d="M56.4,4.6 C57.7,4.9 58.2,5.8 58.2,6.8 C58.2,8.1 57.3,9.2 54.9,9.2 L46.9,9.2 L46.9,0.2 L54.7,0.2 C57.6,0.2 58,1.7 58,2.6 C58,3.6 57.4,4.3 56.4,4.6 Z M54.9,3.9 C56,3.9 56.6,3.5 56.6,2.7 C56.6,1.9 56.1,1.4 54.9,1.4 L48.3,1.4 L48.3,3.9 L54.9,3.9 Z M48.3,5.2 L48.3,7.9 L55,7.9 C56.4,7.9 56.7,7.2 56.7,6.6 C56.7,5.9 56.3,5.2 55,5.2 L48.3,5.2 L48.3,5.2 Z" id="Shape"></path>
                    <path d="M74.3,9.2 L72.7,9.2 L71.5,6.7 L64.4,6.7 L63.2,9.2 L61.6,9.2 L65.2,2 C65.8,0.8 66.5,0.1 67.9,0.1 C69.3,0.1 70,0.8 70.6,2 L74.3,9.2 Z M69.3,2.2 C69,1.6 68.7,1.3 68,1.3 C67.4,1.3 67,1.6 66.7,2.2 L65.1,5.4 L70.8,5.4 L69.3,2.2 Z" id="Shape"></path>
                    <path d="M79.4,0.2 L79.4,5.6 C79.4,7.3 80.1,7.8 82.2,7.8 L88.1,7.8 L88.1,9.2 L82.2,9.2 C79.3,9.2 77.9,8.2 77.9,5.6 L77.9,0.2 L79.4,0.2 Z" id="Path"></path>
                    <path d="M100.1,9.2 L98.6,9.2 L98.6,0.2 L99.7,0.2 C102,0.2 102.6,1 105,4.3 C107.3,7.4 107.6,7.8 108.7,7.8 L108.8,7.8 L108.8,0.2 L110.3,0.2 L110.3,9.2 L109.2,9.2 C107.1,9.2 106.4,8.5 103.9,5.1 C101.5,1.9 101.3,1.6 100.1,1.6 L100,1.6 L100,9.2 L100.1,9.2 Z" id="Path"></path>
                    <path d="M119.4,1.5 C117.4,1.5 116.7,2.3 116.6,4 L126.3,4 L126.3,5.3 L116.6,5.3 C116.7,6.9 117.4,7.8 119.4,7.8 L126.5,7.8 L126.5,9.2 L119.4,9.2 C116.3,9.2 115.1,7.7 115.1,4.7 C115.1,1.7 116.3,0.2 119.4,0.2 L126.5,0.2 L126.5,1.6 L119.4,1.6 L119.4,1.5 Z" id="Path"></path>
                    <polygon id="Path" points="134.9 9.2 134.9 1.5 130.3 1.5 130.3 0.2 141.1 0.2 141.1 1.5 136.4 1.5 136.4 9.2"></polygon>
                    <path d="M162.5,0.2 L159.2,7.6 C158.6,9.1 157.5,9.4 156.6,9.4 C155.5,9.4 154.6,8.9 154.1,7.8 L153.4,6.1 L152.6,7.7 C152,8.8 151.1,9.3 150.1,9.3 C149.2,9.3 148.2,9 147.5,7.5 L144.2,0.1 L145.7,0.1 L148.7,6.9 C149,7.7 149.4,7.8 149.9,7.8 C150.5,7.8 150.9,7.5 151.2,6.9 L152.5,4.3 L150.4,0 L151.9,0 L153.4,3.1 L154.8,0.2 L156.3,0.2 L154.2,4.5 L155.4,7.1 C155.7,7.7 156,8 156.7,8 C157.2,8 157.6,7.8 158,7.1 L161,0.3 L162.5,0.3 L162.5,0.2 Z" id="Path"></path>
                    <path d="M178.4,4.7 C178.4,8.3 176.3,9.3 172.1,9.3 C168,9.3 165.8,8.3 165.8,4.7 C165.8,1.1 167.9,0.1 172.1,0.1 C176.3,-7.03603842e-15 178.4,1.1 178.4,4.7 Z M176.9,4.7 C176.9,1.9 175.3,1.4 172.1,1.4 C169,1.4 167.3,1.8 167.3,4.7 C167.3,7.5 168.9,8 172.1,8 C175.3,7.9 176.9,7.5 176.9,4.7 Z" id="Shape"></path>
                    <path d="M183,0.2 L190.8,0.2 C193,0.2 194.2,1.3 194.2,3 C194.2,4.3 193.5,5.1 192.3,5.4 C193.5,5.7 194,6.5 194,7.5 L194,9.2 L192.5,9.2 L192.5,7.4 C192.5,6.7 192,6 190.8,6 L184.5,6 L184.5,9.2 L183,9.2 L183,0.2 Z M190.9,4.7 C192.3,4.7 192.7,3.8 192.7,3.1 C192.7,2.4 192.3,1.5 190.9,1.5 L184.5,1.5 L184.5,4.8 L190.9,4.8 L190.9,4.7 Z" id="Shape"></path>
                    <path d="M208,9.2 L206,6.6 C205.6,6.2 204.9,5.3 204,5.3 L200.4,5.3 L200.4,9.2 L198.9,9.2 L198.9,0.2 L200.4,0.2 L200.4,4 L203.8,4 C204.7,4 205.5,3.2 205.9,2.8 L207.8,0.3 L209.7,0.3 L207.1,3.5 C206.7,4 206.2,4.5 205.5,4.7 C206.3,4.9 206.8,5.5 207.3,6 L210,9.3 L208,9.3 L208,9.2 Z" id="Path"></path>
                    <path d="M221.4,7.9 C222.7,7.9 223.2,7.5 223.2,6.7 C223.2,5.9 222.6,5.5 221.1,5.4 L216.7,5 C214.7,4.8 213.6,4.1 213.6,2.5 C213.6,0.7 215,0.1 216.8,0.1 L224.1,0.1 L224.1,1.4 L216.7,1.4 C215.7,1.4 215.1,1.7 215.1,2.5 C215.1,3.2 215.6,3.6 217.1,3.7 L221.4,4 C223.5,4.2 224.8,4.8 224.8,6.6 C224.8,8.1 223.8,9.1 221.4,9.1 L213.4,9.1 L213.4,7.8 L221.4,7.8 L221.4,7.9 Z" id="Path"></path>
                </g>
                <polygon id="Path" fill="#DD9D33" points="34.9 37.6 36.4 34.8 39.6 40.2 39.6 40.2 42.7 45.6 49 45.6 46.2 40.7 46 40.4 36.4 24 28.5 37.6"></polygon>
                <polygon id="Path" fill="#DD9D33" points="45.8 45.6 49 45.6 46.2 40.7 46 40.4 36.4 24 28.5 37.6 31.7 37.6 36.4 29.6"></polygon>
                <polygon id="Path" fill="#828282" points="36.1 40.2 23.4 40.2 33.4 22.9 34.7 20.8 31.6 15.4 23.6 29.2 14.1 45.6 39.1 45.6"></polygon>
                <polygon id="Path" fill="#828282" points="18.8 42.9 28.2 26.5 33.1 18.1 31.6 15.4 23.6 29.2 14.1 45.6 39.1 45.6 37.6 42.9"></polygon>
                <path d="M50.1,31.9 C50.8,31.2 51.2,30.2 51.2,29.1 C51.2,26.8 49.3,24.9 47,24.9 C46.7,24.9 46.4,24.9 46.1,25 L31.6,0 L17.1,25.1 C16.8,25 16.5,25 16.2,25 C13.9,25 12,26.9 12,29.2 C12,30.3 12.4,31.2 13.1,32 L7.10542736e-15,54.5 L27.6,54.5 C28.1,56.2 29.7,57.4 31.5,57.4 C33.3,57.4 34.9,56.2 35.4,54.5 L63,54.5 L50.1,31.9 Z M47,27.1 C48.1,27.1 49,28 49,29.1 C49,30.2 48.1,31.1 47,31.1 C45.9,31.1 45,30.2 45,29.1 C44.9,28 45.9,27.1 47,27.1 M16.2,27.1 C17.3,27.1 18.2,28 18.2,29.1 C18.2,30.2 17.3,31.1 16.2,31.1 C15.1,31.1 14.2,30.2 14.2,29.1 C14.2,28 15.1,27.1 16.2,27.1 M31.6,55.2 C30.5,55.2 29.6,54.3 29.6,53.2 C29.6,52.1 30.5,51.2 31.6,51.2 C32.7,51.2 33.6,52.1 33.6,53.2 C33.5,54.3 32.7,55.2 31.6,55.2 M31.6,49.1 C29.8,49.1 28.2,50.3 27.7,52 L4.6,52 L15.4,33.3 C15.7,33.4 16,33.4 16.3,33.4 C18.6,33.4 20.5,31.5 20.5,29.2 C20.5,28.1 20.1,27.2 19.4,26.4 L31.6,5.2 L43.8,26.4 C43.2,27.1 42.7,28.1 42.7,29.1 C42.7,31.4 44.6,33.3 46.9,33.3 C47.2,33.3 47.5,33.3 47.7,33.2 L58.5,51.9 L35.5,51.9 C35,50.3 33.4,49.1 31.6,49.1" id="Shape" fill="#DD9D33"></path>
                <path d="M50.1,31.9 C50.8,31.2 51.2,30.2 51.2,29.1 C51.2,26.8 49.3,24.9 47,24.9 C46.7,24.9 46.4,24.9 46.1,25 L31.6,0 L17.1,25.1 C16.8,25 16.5,25 16.2,25 C13.9,25 12,26.9 12,29.2 C12,30.3 12.4,31.2 13.1,32 L7.10542736e-15,54.5 L27.6,54.5 C28.1,56.2 29.7,57.4 31.5,57.4 C33.3,57.4 34.9,56.2 35.4,54.5 L63,54.5 L50.1,31.9 Z M33.5,53.1 C33.5,53.2 33.5,53.2 33.5,53.3 C33.5,54.4 32.6,55.3 31.5,55.3 C30.4,55.3 29.5,54.4 29.5,53.3 C29.5,53.2 29.5,53.2 29.5,53.1 L2.6,53.1 L15.4,31 C14.7,30.7 14.3,30 14.3,29.2 C14.3,28.1 15.2,27.2 16.3,27.2 C16.7,27.2 17.1,27.3 17.4,27.5 L31.6,2.8 L45.8,27.5 C46.1,27.3 46.5,27.1 47,27.1 C48.1,27.1 49,28 49,29.1 C49,29.9 48.5,30.6 47.8,30.9 L60.5,53 L33.5,53 L33.5,53.1 Z" id="Shape" fill="#DD9D33"></path>
            </g>
            <g id="Group" fill-rule="nonzero">
                <g id="Path" transform="translate(77.000000, 12.700000)">
                    <path d="M17.3,1.9 C16.4,0.7 15,0 13.5,0 C11.9,0 10.4,0.8 9.5,2 L0.4,14.7 C0.1,15 1.52020044e-23,15.4 1.52020044e-23,15.8 C1.52020044e-23,16.8 0.8,17.7 1.8,17.7 C2.3,17.7 2.8,17.4 3.2,17 L12,4.9 C12.3,4.5 12.9,3.9 13.4,3.9 C14,3.9 14.5,4.5 14.9,4.9 L23.7,17 C24,17.5 24.6,17.7 25.1,17.7 C26.1,17.7 26.9,16.8 26.9,15.8 C26.9,15.3 26.7,14.8 26.4,14.5 L17.3,1.9 Z" fill="url(#linearGradient-1)"></path>
                    <path d="M13.5,11.1 C12.2,11.1 11.2,12.2 11.2,13.5 C11.2,14.8 12.2,15.9 13.5,15.9 C14.8,15.9 15.8,14.8 15.8,13.5 C15.8,12.2 14.8,11.1 13.5,11.1 Z" fill="url(#linearGradient-2)"></path>
                    <path d="M57.6,14 L35,14 C34.2,14 33.6,13.3 33.6,12.6 L33.6,2.7 C33.6,1.7 32.7,0.8 31.8,0.8 C30.8,0.8 30,1.7 30,2.7 L30,12.6 C30,15.5 32.4,17.8 35.2,17.8 L57.7,17.8 C58.7,17.8 59.5,16.9 59.5,15.9 C59.4,14.8 58.6,14 57.6,14 Z" fill="url(#linearGradient-3)"></path>
                    <path d="M70.1,4.5 L91.2,4.5 C92.2,4.5 93,3.6 93,2.6 C93,1.6 92.2,0.7 91.2,0.7 L69.3,0.7 C65,0.7 62.4,5.2 62.4,9.2 C62.4,13 64.8,17.7 68.9,17.7 L91.2,17.7 C92.2,17.7 93,16.8 93,15.8 C93,14.8 92.2,13.9 91.2,13.9 L70.1,13.9 C66.6,13.9 65.9,11 65.9,9.2 C65.9,7.4 66.7,4.5 70.1,4.5 Z" fill="url(#linearGradient-4)"></path>
                    <path d="M123.8,0.8 C122.8,0.8 122,1.7 122,2.7 L122,7.4 L99.8,7.4 L99.8,2.7 C99.8,1.7 99,0.8 98,0.8 C97,0.8 96.2,1.7 96.2,2.7 L96.2,15.9 C96.2,16.9 97,17.8 98,17.8 C99,17.8 99.8,16.9 99.8,15.9 L99.8,11.2 L121.9,11.2 L121.9,15.9 C121.9,16.9 122.7,17.8 123.7,17.8 C124.7,17.8 125.5,16.9 125.5,15.9 L125.5,2.7 C125.6,1.7 124.7,0.8 123.8,0.8 Z" fill="url(#linearGradient-5)"></path>
                    <path d="M155.5,7.4 L136.8,7.4 C135.8,7.4 135,8.3 135,9.3 C135,10.3 135.8,11.2 136.8,11.2 L155.5,11.2 C156.5,11.2 157.3,10.3 157.3,9.3 C157.3,8.3 156.5,7.4 155.5,7.4 Z" fill="url(#linearGradient-6)"></path>
                    <path d="M158.9,2.7 C158.9,1.7 158.1,0.8 157.1,0.8 L135.5,0.8 C131.2,0.8 128.6,5.3 128.6,9.3 C128.6,13.1 131,17.8 135.1,17.8 L157,17.8 C158,17.8 158.8,16.9 158.8,15.9 C158.8,14.9 158,14 157,14 L136.3,14 C132.8,14 132.1,11.1 132.1,9.3 C132.1,7.5 132.9,4.6 136.3,4.6 L157,4.6 C158,4.5 158.9,3.7 158.9,2.7 Z" fill="url(#linearGradient-7)"></path>
                    <path d="M190.4,0.8 C189.2,0.8 188.1,1.4 187.5,2.4 L187.5,2.4 L178.9,12.6 C178.7,12.9 178.2,13.2 177.8,13.2 C177.4,13.2 177,12.8 176.7,12.6 L168,2.4 C167.2,1.5 166.3,0.8 165.1,0.8 C163.1,0.8 161.9,2.5 161.9,4.5 L161.9,15.8 C161.9,16.8 162.7,17.7 163.7,17.7 C164.7,17.7 165.5,16.8 165.5,15.8 L165.5,7.3 C165.5,6.2 165.5,5.7 165.7,5.7 C165.9,5.7 166.2,6.1 166.8,6.7 L175.1,16.4 C175.7,17.2 176.8,17.6 177.8,17.6 C178.9,17.6 179.9,17.2 180.5,16.4 L188.8,6.7 C189.4,6 189.7,5.7 189.9,5.7 C190.1,5.7 190.1,6.2 190.1,7.3 L190.1,15.8 C190.1,16.8 190.9,17.7 191.9,17.7 C192.9,17.7 193.7,16.8 193.7,15.8 L193.7,4.5 C193.6,2.5 192.4,0.8 190.4,0.8 Z" fill="url(#linearGradient-8)"></path>
                    <path d="M225.1,0.8 C224.6,0.8 224.2,1 223.8,1.3 C217.3,7.2 215.7,7.5 211.8,7.5 C207.9,7.5 206.2,7.1 199.7,1.3 C199.3,1 198.9,0.8 198.4,0.8 C197.4,0.8 196.6,1.7 196.6,2.7 C196.6,3.3 196.9,3.8 197.3,4.2 C203.7,10 206.6,11.6 211.7,11.6 C216.5,11.6 219.8,10 226.1,4.2 C226.5,3.9 226.8,3.3 226.8,2.7 C226.9,1.7 226.1,0.8 225.1,0.8 Z" fill="url(#linearGradient-9)"></path>
                    <path d="M211.8,13.4 C210.5,13.4 209.5,14.5 209.5,15.8 C209.5,17.1 210.6,18.2 211.8,18.2 C213.1,18.2 214.1,17.1 214.1,15.8 C214.1,14.5 213.1,13.4 211.8,13.4 Z" fill="url(#linearGradient-10)"></path>
                </g>
                <g transform="translate(75.500000, 36.300000)" fill="#606161">
                    <path d="M11.4,4.5 L11.4,9.2 L4.3,9.2 C1.2,9.2 1.52020044e-23,7.7 1.52020044e-23,4.7 C1.52020044e-23,1.7 1.2,0.2 4.3,0.2 L11.3,0.2 L11.3,1.6 L4.3,1.6 C2,1.6 1.5,2.7 1.5,4.7 C1.5,6.8 2,7.8 4.3,7.8 L10,7.8 L10,4.5 L11.4,4.5 L11.4,4.5 Z" id="Path"></path>
                    <path d="M17.6,0.2 L17.6,5.6 C17.6,7.3 18.3,7.8 20.4,7.8 L26.3,7.8 L26.3,9.2 L20.4,9.2 C17.5,9.2 16.1,8.2 16.1,5.6 L16.1,0.2 L17.6,0.2 Z" id="Path"></path>
                    <path d="M42.3,4.7 C42.3,8.3 40.2,9.3 36,9.3 C31.9,9.3 29.7,8.3 29.7,4.7 C29.7,1.1 31.8,0.1 36,0.1 C40.1,-7.03603842e-15 42.3,1.1 42.3,4.7 Z M40.8,4.7 C40.8,1.9 39.2,1.4 36,1.4 C32.9,1.4 31.2,1.8 31.2,4.7 C31.2,7.5 32.8,8 36,8 C39.1,7.9 40.8,7.5 40.8,4.7 Z" id="Shape"></path>
                    <path d="M56.4,4.6 C57.7,4.9 58.2,5.8 58.2,6.8 C58.2,8.1 57.3,9.2 54.9,9.2 L46.9,9.2 L46.9,0.2 L54.7,0.2 C57.6,0.2 58,1.7 58,2.6 C58,3.6 57.4,4.3 56.4,4.6 Z M54.9,3.9 C56,3.9 56.6,3.5 56.6,2.7 C56.6,1.9 56.1,1.4 54.9,1.4 L48.3,1.4 L48.3,3.9 L54.9,3.9 Z M48.3,5.2 L48.3,7.9 L55,7.9 C56.4,7.9 56.7,7.2 56.7,6.6 C56.7,5.9 56.3,5.2 55,5.2 L48.3,5.2 L48.3,5.2 Z" id="Shape"></path>
                    <path d="M74.3,9.2 L72.7,9.2 L71.5,6.7 L64.4,6.7 L63.2,9.2 L61.6,9.2 L65.2,2 C65.8,0.8 66.5,0.1 67.9,0.1 C69.3,0.1 70,0.8 70.6,2 L74.3,9.2 Z M69.3,2.2 C69,1.6 68.7,1.3 68,1.3 C67.4,1.3 67,1.6 66.7,2.2 L65.1,5.4 L70.8,5.4 L69.3,2.2 Z" id="Shape"></path>
                    <path d="M79.4,0.2 L79.4,5.6 C79.4,7.3 80.1,7.8 82.2,7.8 L88.1,7.8 L88.1,9.2 L82.2,9.2 C79.3,9.2 77.9,8.2 77.9,5.6 L77.9,0.2 L79.4,0.2 Z" id="Path"></path>
                    <path d="M100.1,9.2 L98.6,9.2 L98.6,0.2 L99.7,0.2 C102,0.2 102.6,1 105,4.3 C107.3,7.4 107.6,7.8 108.7,7.8 L108.8,7.8 L108.8,0.2 L110.3,0.2 L110.3,9.2 L109.2,9.2 C107.1,9.2 106.4,8.5 103.9,5.1 C101.5,1.9 101.3,1.6 100.1,1.6 L100,1.6 L100,9.2 L100.1,9.2 Z" id="Path"></path>
                    <path d="M119.4,1.5 C117.4,1.5 116.7,2.3 116.6,4 L126.3,4 L126.3,5.3 L116.6,5.3 C116.7,6.9 117.4,7.8 119.4,7.8 L126.5,7.8 L126.5,9.2 L119.4,9.2 C116.3,9.2 115.1,7.7 115.1,4.7 C115.1,1.7 116.3,0.2 119.4,0.2 L126.5,0.2 L126.5,1.6 L119.4,1.6 L119.4,1.5 Z" id="Path"></path>
                    <polygon id="Path" points="134.9 9.2 134.9 1.5 130.3 1.5 130.3 0.2 141.1 0.2 141.1 1.5 136.4 1.5 136.4 9.2"></polygon>
                    <path d="M162.5,0.2 L159.2,7.6 C158.6,9.1 157.5,9.4 156.6,9.4 C155.5,9.4 154.6,8.9 154.1,7.8 L153.4,6.1 L152.6,7.7 C152,8.8 151.1,9.3 150.1,9.3 C149.2,9.3 148.2,9 147.5,7.5 L144.2,0.1 L145.7,0.1 L148.7,6.9 C149,7.7 149.4,7.8 149.9,7.8 C150.5,7.8 150.9,7.5 151.2,6.9 L152.5,4.3 L150.4,0 L151.9,0 L153.4,3.1 L154.8,0.2 L156.3,0.2 L154.2,4.5 L155.4,7.1 C155.7,7.7 156,8 156.7,8 C157.2,8 157.6,7.8 158,7.1 L161,0.3 L162.5,0.3 L162.5,0.2 Z" id="Path"></path>
                    <path d="M178.4,4.7 C178.4,8.3 176.3,9.3 172.1,9.3 C168,9.3 165.8,8.3 165.8,4.7 C165.8,1.1 167.9,0.1 172.1,0.1 C176.3,-7.03603842e-15 178.4,1.1 178.4,4.7 Z M176.9,4.7 C176.9,1.9 175.3,1.4 172.1,1.4 C169,1.4 167.3,1.8 167.3,4.7 C167.3,7.5 168.9,8 172.1,8 C175.3,7.9 176.9,7.5 176.9,4.7 Z" id="Shape"></path>
                    <path d="M183,0.2 L190.8,0.2 C193,0.2 194.2,1.3 194.2,3 C194.2,4.3 193.5,5.1 192.3,5.4 C193.5,5.7 194,6.5 194,7.5 L194,9.2 L192.5,9.2 L192.5,7.4 C192.5,6.7 192,6 190.8,6 L184.5,6 L184.5,9.2 L183,9.2 L183,0.2 Z M190.9,4.7 C192.3,4.7 192.7,3.8 192.7,3.1 C192.7,2.4 192.3,1.5 190.9,1.5 L184.5,1.5 L184.5,4.8 L190.9,4.8 L190.9,4.7 Z" id="Shape"></path>
                    <path d="M208,9.2 L206,6.6 C205.6,6.2 204.9,5.3 204,5.3 L200.4,5.3 L200.4,9.2 L198.9,9.2 L198.9,0.2 L200.4,0.2 L200.4,4 L203.8,4 C204.7,4 205.5,3.2 205.9,2.8 L207.8,0.3 L209.7,0.3 L207.1,3.5 C206.7,4 206.2,4.5 205.5,4.7 C206.3,4.9 206.8,5.5 207.3,6 L210,9.3 L208,9.3 L208,9.2 Z" id="Path"></path>
                    <path d="M221.4,7.9 C222.7,7.9 223.2,7.5 223.2,6.7 C223.2,5.9 222.6,5.5 221.1,5.4 L216.7,5 C214.7,4.8 213.6,4.1 213.6,2.5 C213.6,0.7 215,0.1 216.8,0.1 L224.1,0.1 L224.1,1.4 L216.7,1.4 C215.7,1.4 215.1,1.7 215.1,2.5 C215.1,3.2 215.6,3.6 217.1,3.7 L221.4,4 C223.5,4.2 224.8,4.8 224.8,6.6 C224.8,8.1 223.8,9.1 221.4,9.1 L213.4,9.1 L213.4,7.8 L221.4,7.8 L221.4,7.9 Z" id="Path"></path>
                </g>
                <polygon id="Path" fill="url(#linearGradient-11)" points="35.4 38.7 37.1 35.4 40.9 41.7 40.8 41.7 44.3 47.9 51.7 47.9 48.4 42.3 48.2 41.9 37.1 23 28.1 38.7"></polygon>
                <polygon id="Path" fill="url(#linearGradient-12)" points="47.9 47.9 51.7 47.9 48.4 42.3 48.2 41.9 37.1 23 28.1 38.7 31.8 38.7 37.1 29.4"></polygon>
                <polygon id="Path" fill="url(#linearGradient-13)" points="36.8 41.7 22.2 41.7 33.7 21.8 35.2 19.4 31.6 13.1 22.4 29 11.5 47.9 40.3 47.9"></polygon>
                <polygon id="Path" fill="url(#linearGradient-14)" points="16.8 44.8 27.7 25.9 33.3 16.2 31.6 13.1 22.4 29 11.5 47.9 40.3 47.9 38.5 44.8"></polygon>
                <path d="M50.1,31.9 C50.8,31.2 51.2,30.2 51.2,29.1 C51.2,26.8 49.3,24.9 47,24.9 C46.7,24.9 46.4,24.9 46.1,25 L31.6,0 L17.1,25.1 C16.8,25 16.5,25 16.2,25 C13.9,25 12,26.9 12,29.2 C12,30.3 12.4,31.2 13.1,32 L7.10542736e-15,54.5 L27.6,54.5 C28.1,56.2 29.7,57.4 31.5,57.4 C33.3,57.4 34.9,56.2 35.4,54.5 L63,54.5 L50.1,31.9 Z M47,27.1 C48.1,27.1 49,28 49,29.1 C49,30.2 48.1,31.1 47,31.1 C45.9,31.1 45,30.2 45,29.1 C44.9,28 45.9,27.1 47,27.1 M16.2,27.1 C17.3,27.1 18.2,28 18.2,29.1 C18.2,30.2 17.3,31.1 16.2,31.1 C15.1,31.1 14.2,30.2 14.2,29.1 C14.2,28 15.1,27.1 16.2,27.1 M31.6,55.2 C30.5,55.2 29.6,54.3 29.6,53.2 C29.6,52.1 30.5,51.2 31.6,51.2 C32.7,51.2 33.6,52.1 33.6,53.2 C33.5,54.3 32.7,55.2 31.6,55.2 M31.6,49.1 C29.8,49.1 28.2,50.3 27.7,52 L4.6,52 L15.4,33.3 C15.7,33.4 16,33.4 16.3,33.4 C18.6,33.4 20.5,31.5 20.5,29.2 C20.5,28.1 20.1,27.2 19.4,26.4 L31.6,5.2 L43.8,26.4 C43.2,27.1 42.7,28.1 42.7,29.1 C42.7,31.4 44.6,33.3 46.9,33.3 C47.2,33.3 47.5,33.3 47.7,33.2 L58.5,51.9 L35.5,51.9 C35,50.3 33.4,49.1 31.6,49.1" id="Shape" fill="url(#linearGradient-15)"></path>
                <path d="M50.1,31.9 C50.8,31.2 51.2,30.2 51.2,29.1 C51.2,26.8 49.3,24.9 47,24.9 C46.7,24.9 46.4,24.9 46.1,25 L31.6,0 L17.1,25.1 C16.8,25 16.5,25 16.2,25 C13.9,25 12,26.9 12,29.2 C12,30.3 12.4,31.2 13.1,32 L7.10542736e-15,54.5 L27.6,54.5 C28.1,56.2 29.7,57.4 31.5,57.4 C33.3,57.4 34.9,56.2 35.4,54.5 L63,54.5 L50.1,31.9 Z M33.5,53.1 C33.5,53.2 33.5,53.2 33.5,53.3 C33.5,54.4 32.6,55.3 31.5,55.3 C30.4,55.3 29.5,54.4 29.5,53.3 C29.5,53.2 29.5,53.2 29.5,53.1 L2.6,53.1 L15.4,31 C14.7,30.7 14.3,30 14.3,29.2 C14.3,28.1 15.2,27.2 16.3,27.2 C16.7,27.2 17.1,27.3 17.4,27.5 L31.6,2.8 L45.8,27.5 C46.1,27.3 46.5,27.1 47,27.1 C48.1,27.1 49,28 49,29.1 C49,29.9 48.5,30.6 47.8,30.9 L60.5,53 L33.5,53 L33.5,53.1 Z" id="Shape" fill="url(#linearGradient-16)"></path>
            </g>
            <g id="R" transform="translate(307.900000, 12.803698)" filter="url(#filter-17)">
                <g>
                    <text fill="#606161" fill-rule="nonzero" font-family="HelveticaNeue-Bold, Helvetica Neue" font-size="8" font-weight="bold">
                        <tspan x="3.62680237" y="9.59424714">R</tspan>
                    </text>
                    <ellipse id="Oval" stroke="#E7A741" cx="6.5" cy="6.29815087" rx="6" ry="5.79815087"></ellipse>
                </g>
            </g>
        </g>
    </g>
</svg>